<?xml version="1.0" encoding="UTF-8"?>
<svg id="Layer_1" xmlns="http://www.w3.org/2000/svg" version="1.1" viewBox="0 0 841.9 595.3">
  <!-- Generator: Adobe Illustrator 29.3.1, SVG Export Plug-In . SVG Version: 2.1.0 Build 151)  -->
  <defs>
    <style>
      .st0 {
        fill: #fff;
        stroke-width: 11px;
      }

      .st0, .st1, .st2 {
        stroke: #000;
      }

      .st0, .st2 {
        stroke-linecap: round;
        stroke-linejoin: round;
      }

      .st1 {
        stroke-miterlimit: 10;
      }

      .st1, .st2 {
        fill: none;
        stroke-width: 2px;
      }
    </style>
  </defs>
  <path class="st0" d="M249.1,224.6c18.2,16.2,29.9,34.8,33.9,59,6.1,36.6-3.7,69-29.8,96-1.2,1.2-2.7,2.1-3,4,3,6.2,7.4,15.2,12,20.5h2.5c8.1-1.2,16.2-2.3,24.5-1.6,20.3,1.7,37.7,9.6,52.5,23.6,2.2,2.1,4.1,4.7,7,6l1-.5c11.3-11,23.6-20.1,38.9-25.2,14.3-4.7,28.5-5.1,43-2.7,2.7.4,4.7.6,6-2.1,2.7-5.3,6.5-10.1,8.8-15.6l.6-2.4c-5-7.4-11.7-13.4-16.6-20.9-10.9-16.8-16.6-35.1-17.4-55.1-1.3-31.8,9.6-58.8,31.6-81.4,3.2-3.3,3.7-5.5.6-9.2-1.6-1.9-3.2-4.4-4.1-6.9-1.6-4.9-4.7-5.4-9.1-4.5-24.7,4.9-45.7-6.9-55.8-28-2.7-5.6-5.8-7.3-11.7-7.1-10.5.5-21,.4-31.5,0-6-.2-9.4,1.6-12.2,7.5-6,12.3-15.5,21.6-28.8,26.1-9.5,3.2-19.2,3.3-29,1.4-2.6-.5-4.2-.4-5.5,2.1-2.7,5-6.5,9.4-8,15l-.6,2.1h0Z"/>
  <path class="st0" d="M349.7,431.6s-5.8-3.4-8-5.5c-14.8-14-32.1-21.9-52.5-23.6-8.3-.7-16.4.4-24.5,1.5h-2.5c-4.6-5.1-9-14.2-12-20.4.3-1.9,1.9-2.8,3-4,26.1-27,35.9-59.3,29.8-96-4-24.1-15.7-42.8-33.9-59l.6-2.1c1.4-5.7,5.3-10,8-15,1.3-2.4,2.9-2.6,5.5-2.1,9.7,1.9,19.5,1.8,29-1.4,13.3-4.5,22.8-13.8,28.8-26.1,2.8-5.9,21.3-6.4,27.3-6.2l1.4,259.9h0Z"/>
  <polyline class="st2" points="420.3 262 407.5 262 387.9 281.6"/>
  <circle cx="383.3" cy="269.7" r="2.8"/>
  <line class="st2" x1="384.3" y1="393.2" x2="376.6" y2="385.5"/>
  <line class="st2" x1="376.6" y1="339.8" x2="395.5" y2="321"/>
  <line class="st2" x1="407.5" y1="262" x2="375.1" y2="262"/>
  <line class="st2" x1="375.1" y1="262" x2="367.1" y2="254"/>
  <line class="st1" x1="383" y1="269.7" x2="399.9" y2="269.7"/>
  <circle cx="366.7" cy="253.7" r="2.8"/>
  <line class="st1" x1="387.9" y1="281.6" x2="372" y2="281.6"/>
  <circle cx="372" cy="281.6" r="2.8"/>
  <line class="st2" x1="396" y1="354.8" x2="396" y2="309.2"/>
  <line class="st2" x1="376.6" y1="362.8" x2="376.6" y2="339.8"/>
  <line class="st2" x1="396" y1="309.2" x2="413.6" y2="291.6"/>
  <circle cx="396" cy="356.4" r="2.8"/>
  <circle cx="376.6" cy="363.9" r="2.8"/>
  <line class="st2" x1="404.8" y1="338" x2="397.1" y2="330.4"/>
  <line class="st2" x1="404.8" y1="375.4" x2="404.8" y2="338"/>
  <circle cx="404.8" cy="375.6" r="2.8"/>
  <line class="st1" x1="346.1" y1="319.8" x2="363.3" y2="319.8"/>
  <circle cx="382.9" cy="300.2" r="2.8"/>
  <line class="st1" x1="347.7" y1="385.5" x2="377.1" y2="385.5"/>
  <circle cx="384.3" cy="393.9" r="2.8"/>
  <line class="st2" x1="428.6" y1="246.3" x2="409" y2="226.8"/>
  <line class="st2" x1="399.9" y1="238.7" x2="420.9" y2="238.7"/>
  <line class="st2" x1="370.7" y1="226.8" x2="409" y2="226.8"/>
  <circle cx="399.9" cy="238.7" r="2.8"/>
  <circle cx="370.7" cy="226.8" r="2.8"/>
  <line class="st2" x1="382.9" y1="300.2" x2="363.3" y2="319.8"/>
  <line class="st1" x1="346.1" y1="319.8" x2="363.5" y2="319.8"/>
  <g>
    <polyline class="st2" points="345.3 207 368.7 207 376.3 199.4"/>
    <circle cx="377.5" cy="197.8" r="2.8"/>
    <path class="st2" d="M362.1,207.7"/>
    <line class="st2" x1="364" y1="207.7" x2="374.7" y2="218.5"/>
    <line class="st2" x1="384.2" y1="218.5" x2="375.4" y2="218.5"/>
    <circle cx="384.7" cy="218.5" r="2.8"/>
  </g>
</svg>